# xmcd CD database file
#
# Track frame offsets:
#	150
#	13374
#	23477
#	35460
#	49199
#	60656
#	72338
#	85404
#	99215
#	112329
#	124970
#	134420
#	145118
#	154941
#	166317
#	178170
#	189394
#	200852
#	212886
#	223605
#
# Disc length: 3164 seconds
#
# Revision: 0
# Processed by: cddbd v1.5.2PL0 Copyright (c) Steve Scherf et al.
# Submitted via: CDex 2.01
#
DISCID=330c5a14
DTITLE=Various Artist - Country Guys - Absolutely Essential D1
DYEAR=2015
DGENRE=Country
TTITLE0=Hank Williams - Jambalaya (On The Bayou)
TTITLE1=Conway Twitty - It's Only Make Believe
TTITLE2=Tennessee Ernie Ford - Sixteen Tons
TTITLE3=Bill Monroe - Blue Moon Of Kentucky
TTITLE4=Ray Price - Crazy Arms
TTITLE5=Don Gibson - Sweet Dreams
TTITLE6=Marty Robbins - Devil Woman
TTITLE7=Jimmy Dean - Big Bad John
TTITLE8=Bobby Helms - My Special Angel
TTITLE9=Al Dexter and His Troopers - Pistol Packin' Mama
TTITLE10=Burl Ives - A Little Bitty Tear
TTITLE11=Hank Locklin - Please Help Me I'm Falling
TTITLE12=Charlie Rich - Lonely Weekends
TTITLE13=Sonny James - Young Love
TTITLE14=Ernest Tubb - Walking The Floor Over You
TTITLE15=Johnny Cash - Cry Cry Cry
TTITLE16=Eddy Arnold - Cattle Call
TTITLE17=Buck Owens - Foolin' Around
TTITLE18=Ferlin Husky - Wings Of A Dove
TTITLE19=Webb Pierce - Wondering
EXTD=YEAR: 2015
EXTT0=
EXTT1=
EXTT2=
EXTT3=
EXTT4=
EXTT5=
EXTT6=
EXTT7=
EXTT8=
EXTT9=
EXTT10=
EXTT11=
EXTT12=
EXTT13=
EXTT14=
EXTT15=
EXTT16=
EXTT17=
EXTT18=
EXTT19=
PLAYORDER=
